<?xml version="1.0" standalone="no"?>
<!DOCTYPE svg PUBLIC "-//W3C//DTD SVG 20010904//EN"
 "http://www.w3.org/TR/2001/REC-SVG-20010904/DTD/svg10.dtd">
<svg version="1.0" xmlns="http://www.w3.org/2000/svg"
 width="1024.000000pt" height="1024.000000pt" viewBox="0 0 1024.000000 1024.000000"
 preserveAspectRatio="xMidYMid meet">

<g transform="translate(0.000000,1024.000000) scale(0.100000,-0.100000)"
fill="#000000" stroke="none">
<path d="M4675 8153 c-28 -10 -73 -31 -100 -47 -34 -19 -372 -351 -1076 -1055
-954 -954 -1029 -1031 -1059 -1093 -55 -115 -50 -252 15 -362 35 -61 74 -100
605 -618 984 -958 1312 -1273 1366 -1309 73 -50 154 -79 235 -86 277 -23 536
252 491 523 -24 148 -18 140 -644 773 l-569 576 333 3 c734 7 1059 -41 1403
-208 447 -217 785 -595 934 -1046 133 -402 99 -888 -90 -1284 -157 -329 -408
-576 -761 -748 -168 -82 -258 -223 -258 -403 0 -254 222 -458 473 -435 182 17
440 144 677 334 370 297 683 739 833 1178 195 567 177 1213 -48 1774 -216 537
-637 1032 -1135 1335 -344 210 -682 325 -1150 391 -88 13 -224 18 -583 21
l-468 5 534 538 c342 345 544 556 561 586 62 111 72 256 26 374 -43 111 -145
221 -250 268 -75 34 -221 41 -295 15z"/>
</g>
</svg>
