<?xml version="1.0" standalone="no"?>
<!DOCTYPE svg PUBLIC "-//W3C//DTD SVG 20010904//EN"
 "http://www.w3.org/TR/2001/REC-SVG-20010904/DTD/svg10.dtd">
<svg version="1.0" xmlns="http://www.w3.org/2000/svg"
 width="1024.000000pt" height="1024.000000pt" viewBox="0 0 1024.000000 1024.000000"
 preserveAspectRatio="xMidYMid meet">

<g transform="translate(0.000000,1024.000000) scale(0.100000,-0.100000)"
fill="#000000" stroke="none">
<path d="M7452 8679 c-62 -11 -170 -51 -227 -87 -49 -30 -571 -546 -591 -585
-10 -19 -12 -33 -5 -45 5 -9 299 -306 653 -659 556 -555 647 -643 672 -643 31
0 79 45 449 418 203 204 252 303 252 507 0 149 -34 258 -115 369 -51 68 -526
551 -592 602 -145 109 -319 152 -496 123z"/>
<path d="M2060 8054 c-168 -36 -324 -159 -398 -315 -22 -46 -45 -108 -51 -137
-8 -37 -11 -827 -11 -2695 0 -2943 -5 -2711 71 -2867 74 -149 210 -264 384
-322 l70 -23 2605 -2 c1554 -1 2637 2 2684 8 236 28 443 198 523 432 l28 82 0
1888 0 1889 -24 19 c-17 14 -33 18 -50 14 -29 -7 -354 -324 -377 -367 -12 -23
-14 -260 -14 -1644 0 -1250 -3 -1626 -12 -1658 -8 -25 -32 -61 -63 -93 -89
-91 173 -84 -2655 -81 -2445 3 -2496 3 -2534 22 -46 23 -99 74 -123 119 -17
30 -18 161 -18 2553 l0 2521 30 49 c19 30 49 60 79 79 l49 30 1724 5 1723 5
170 171 c157 157 170 173 170 206 0 44 -38 94 -87 114 -49 21 -3797 19 -3893
-2z"/>
<path d="M6385 7724 c-48 -35 -2848 -2842 -2862 -2868 -14 -27 -95 -273 -266
-806 -288 -896 -336 -1048 -341 -1072 -7 -33 13 -85 43 -112 12 -11 41 -21 68
-23 43 -4 102 15 568 190 286 107 682 256 881 330 198 74 374 142 391 150 16
9 272 262 569 564 721 733 1250 1269 1829 1851 272 274 481 492 483 504 3 17
-133 157 -645 664 -680 674 -669 665 -718 628z m-2230 -3584 c192 -192 347
-351 345 -353 -7 -6 -785 -295 -812 -302 -19 -5 -37 8 -97 69 l-74 75 118 363
c64 200 127 393 139 430 11 37 23 68 26 68 3 0 162 -157 355 -350z"/>
</g>
</svg>
