<?xml version="1.0" standalone="no"?>
<!DOCTYPE svg PUBLIC "-//W3C//DTD SVG 20010904//EN"
 "http://www.w3.org/TR/2001/REC-SVG-20010904/DTD/svg10.dtd">
<svg version="1.0" xmlns="http://www.w3.org/2000/svg"
 width="1024.000000pt" height="1024.000000pt" viewBox="0 0 1024.000000 1024.000000"
 preserveAspectRatio="xMidYMid meet">

<g transform="translate(0.000000,1024.000000) scale(0.100000,-0.100000)"
fill="#000000" stroke="none">
<path d="M4365 9059 c-283 -42 -534 -268 -605 -543 -10 -42 -22 -132 -26 -201
l-7 -125 -560 0 c-616 0 -624 -1 -740 -62 -77 -41 -170 -143 -212 -230 -50
-104 -57 -166 -53 -499 l3 -296 27 -40 c46 -70 83 -80 316 -83 7 0 11 -3 9 -7
-3 -5 -1 -125 4 -268 4 -143 13 -406 19 -585 27 -828 42 -1299 65 -1975 14
-401 34 -1022 45 -1380 10 -357 22 -688 24 -735 20 -321 225 -582 532 -677 56
-17 143 -18 1909 -18 l1850 0 87 31 c120 43 223 110 306 199 81 86 131 177
166 299 28 96 39 237 51 686 3 124 17 565 30 980 13 415 27 838 30 940 17 606
53 1751 65 2090 5 151 10 307 10 346 l0 72 123 4 c127 4 163 14 200 56 42 46
46 84 47 393 0 265 -2 304 -20 375 -46 179 -188 322 -365 369 -50 13 -149 15
-622 15 l-563 0 0 103 c-1 190 -42 332 -134 461 -70 98 -156 170 -271 227
-179 88 -124 83 -950 85 -401 1 -757 -2 -790 -7z m1610 -338 c91 -44 166 -120
208 -208 30 -63 32 -77 35 -195 l4 -128 -1101 0 -1101 0 0 98 c0 53 6 120 14
147 40 153 154 270 298 310 44 12 177 14 813 12 l760 -2 70 -34z m1680 -850
c51 -23 118 -98 133 -149 8 -25 12 -116 12 -246 l0 -206 -2681 0 -2680 0 3
223 3 222 28 47 c31 53 80 97 129 115 25 9 633 12 2523 12 2394 1 2492 0 2530
-18z m-229 -1218 c-4 -186 -11 -471 -16 -633 -16 -493 -29 -942 -50 -1680 -34
-1209 -69 -2242 -79 -2308 -28 -191 -193 -360 -389 -401 -37 -8 -566 -11
-1781 -11 -1683 0 -1730 1 -1804 20 -43 10 -98 32 -124 47 -72 42 -149 126
-189 207 -46 94 -49 132 -69 811 -9 292 -22 706 -30 920 -8 215 -17 467 -20
560 -3 94 -10 303 -15 465 -23 679 -51 1517 -60 1830 -5 184 -12 372 -14 417
l-5 83 2322 3 c1277 1 2324 3 2326 5 2 1 1 -150 -3 -335z"/>
<path d="M3750 6363 c-19 -10 -45 -33 -57 -52 -23 -33 -23 -39 -23 -320 0
-261 8 -1171 26 -2866 7 -710 4 -687 73 -732 66 -44 161 -21 197 49 15 29 16
71 10 452 -3 232 -8 673 -11 981 -19 1951 -26 2399 -42 2433 -30 63 -109 88
-173 55z"/>
<path d="M5075 6371 c-11 -5 -33 -23 -50 -41 l-30 -31 -3 -1915 c-2 -2117 -7
-1953 61 -1994 36 -23 100 -26 137 -7 13 7 35 28 47 46 l23 34 0 1901 c0 1790
-1 1903 -18 1935 -9 19 -29 43 -43 54 -30 21 -95 31 -124 18z"/>
<path d="M6395 6366 c-16 -7 -41 -26 -55 -41 l-25 -27 -6 -626 c-4 -345 -10
-1205 -14 -1912 -7 -1196 -7 -1288 9 -1318 49 -95 201 -94 241 2 16 38 21 473
30 2611 5 1208 5 1220 -15 1253 -24 38 -75 72 -110 72 -14 -1 -38 -7 -55 -14z"/>
</g>
</svg>
