<?xml version="1.0" standalone="no"?>
<!DOCTYPE svg PUBLIC "-//W3C//DTD SVG 20010904//EN"
 "http://www.w3.org/TR/2001/REC-SVG-20010904/DTD/svg10.dtd">
<svg version="1.0" xmlns="http://www.w3.org/2000/svg"
 width="1024.000000pt" height="1024.000000pt" viewBox="0 0 1024.000000 1024.000000"
 preserveAspectRatio="xMidYMid meet">

<g transform="translate(0.000000,1024.000000) scale(0.100000,-0.100000)"
fill="#000000" stroke="none">
<path d="M1278 8859 c-167 -24 -236 -191 -149 -360 55 -104 405 -709 491 -849
196 -315 570 -789 1520 -1924 146 -175 277 -335 292 -357 14 -22 31 -62 37
-90 8 -35 11 -588 11 -1793 l0 -1742 29 -45 c41 -65 89 -92 165 -93 58 -1 81
9 471 183 626 281 818 370 844 394 13 12 32 40 42 62 17 37 19 72 19 425 0
369 -1 386 -20 418 -38 62 -146 80 -209 35 -59 -44 -61 -57 -61 -414 l0 -325
-38 -18 c-73 -36 -870 -394 -939 -423 -10 -4 -13 352 -15 1693 l-3 1699 -23
60 c-34 89 -80 152 -382 515 -151 182 -315 380 -365 440 -379 456 -711 864
-915 1124 l-54 69 2450 -4 2449 -4 43 23 c23 12 58 44 76 70 59 80 493 951
501 1003 9 60 -23 137 -71 174 -77 59 145 55 -3135 58 -1659 1 -3036 -1 -3061
-4z m3857 -294 c72 -2 565 -4 1098 -4 532 -1 967 -5 967 -9 0 -4 -39 -82 -86
-172 -153 -295 -242 -464 -266 -507 l-23 -43 -2481 0 c-1969 0 -2483 3 -2496
13 -9 6 -87 136 -173 287 -87 151 -161 280 -165 285 -4 6 -26 45 -50 88 l-42
79 1793 -7 c987 -3 1853 -8 1924 -10z"/>
<path d="M6095 7273 c-647 -43 -1236 -393 -1605 -954 -291 -442 -406 -1009
-320 -1587 102 -694 509 -1248 1148 -1565 436 -216 947 -280 1440 -181 144 29
316 82 421 130 41 19 79 34 86 34 7 0 25 -17 41 -37 90 -120 576 -688 913
-1068 242 -273 381 -412 448 -448 63 -33 190 -67 252 -67 128 1 266 58 366
151 115 108 165 217 166 361 1 98 -23 168 -85 251 -41 55 -315 350 -606 652
-528 549 -755 787 -758 795 -2 6 19 41 46 78 302 407 464 1006 412 1523 -82
811 -587 1466 -1375 1784 -285 115 -656 170 -990 148z m310 -293 c503 -36 933
-239 1287 -609 224 -234 379 -529 443 -845 112 -553 -16 -1138 -345 -1586 -84
-113 -253 -279 -370 -362 -114 -81 -339 -195 -470 -238 -257 -85 -531 -120
-775 -101 -494 40 -917 228 -1235 550 -131 132 -221 258 -304 426 -200 402
-257 857 -165 1310 89 435 360 857 726 1130 108 80 331 193 475 240 138 44
292 73 448 84 69 4 130 9 135 9 6 1 73 -3 150 -8z m1462 -3512 c32 -34 92 -99
133 -143 104 -111 617 -650 893 -938 248 -258 275 -295 263 -371 -15 -90 -83
-162 -178 -188 -63 -16 -142 0 -203 42 -24 17 -115 110 -202 207 -87 98 -194
218 -239 268 -99 112 -679 777 -754 865 -30 36 -58 67 -62 71 -4 3 27 31 70
62 43 31 109 86 147 121 39 36 71 65 72 66 1 0 28 -28 60 -62z"/>
<path d="M5203 6081 c-61 -28 -90 -98 -71 -169 12 -46 32 -69 80 -93 37 -19
68 -19 897 -17 850 3 860 3 887 24 51 38 69 71 69 128 -1 62 -27 105 -79 130
-31 14 -120 16 -888 16 -815 0 -855 -1 -895 -19z"/>
<path d="M5224 5409 c-41 -12 -91 -69 -99 -113 -14 -71 42 -159 108 -171 18
-3 298 -5 622 -3 l590 3 32 23 c40 28 68 98 59 146 -8 44 -50 94 -93 112 -26
11 -143 14 -610 13 -318 0 -592 -5 -609 -10z"/>
<path d="M5214 4681 c-59 -27 -89 -74 -89 -138 0 -61 22 -97 81 -130 38 -22
46 -23 374 -23 190 0 350 4 370 10 20 5 51 25 70 45 27 28 34 44 38 87 4 59
-17 102 -71 142 -27 20 -41 21 -380 23 -326 3 -355 2 -393 -16z"/>
</g>
</svg>
