<?xml version="1.0" standalone="no"?>
<!DOCTYPE svg PUBLIC "-//W3C//DTD SVG 20010904//EN"
 "http://www.w3.org/TR/2001/REC-SVG-20010904/DTD/svg10.dtd">
<svg version="1.0" xmlns="http://www.w3.org/2000/svg"
 width="1024.000000pt" height="1024.000000pt" viewBox="0 0 1024.000000 1024.000000"
 preserveAspectRatio="xMidYMid meet">

<g transform="translate(0.000000,1024.000000) scale(0.100000,-0.100000)"
fill="#000000" stroke="none">
<path d="M2812 5731 c-340 -84 -548 -429 -462 -765 86 -337 423 -540 756 -456
123 31 198 74 290 165 131 130 187 263 187 445 0 116 -14 181 -61 280 -49 104
-175 231 -282 284 -134 65 -285 82 -428 47z"/>
<path d="M4980 5734 c-229 -49 -437 -265 -481 -501 -16 -84 -6 -235 20 -313
65 -189 222 -341 416 -403 100 -31 271 -31 370 0 159 50 298 166 373 309 55
106 75 187 75 299 0 174 -58 311 -183 436 -157 156 -374 220 -590 173z"/>
<path d="M7130 5729 c-122 -31 -195 -74 -291 -169 -140 -139 -195 -277 -187
-470 8 -169 66 -306 179 -419 275 -275 747 -227 964 98 86 130 118 261 104
422 -14 149 -75 275 -183 377 -166 157 -378 215 -586 161z"/>
</g>
</svg>
