<?xml version="1.0" standalone="no"?>
<!DOCTYPE svg PUBLIC "-//W3C//DTD SVG 20010904//EN"
 "http://www.w3.org/TR/2001/REC-SVG-20010904/DTD/svg10.dtd">
<svg version="1.0" xmlns="http://www.w3.org/2000/svg"
 width="1024.000000pt" height="1024.000000pt" viewBox="0 0 1024.000000 1024.000000"
 preserveAspectRatio="xMidYMid meet">

<g transform="translate(0.000000,1024.000000) scale(0.100000,-0.100000)"
fill="#000000" stroke="none">
<path d="M4920 7714 c-19 -2 -75 -8 -125 -14 -114 -12 -170 -20 -220 -30 -71
-14 -308 -69 -365 -85 -30 -8 -62 -17 -70 -19 -213 -60 -556 -213 -860 -384
-163 -91 -581 -374 -715 -483 -435 -356 -689 -600 -1096 -1055 -134 -150 -266
-314 -321 -398 -34 -52 -38 -66 -38 -120 0 -38 7 -76 19 -101 33 -72 181 -253
442 -540 135 -148 528 -528 664 -641 39 -32 88 -74 110 -93 64 -57 87 -75 352
-276 532 -406 1115 -702 1649 -839 104 -27 304 -64 432 -80 141 -18 499 -22
596 -6 33 5 108 16 166 25 107 15 116 17 206 35 28 6 64 13 80 16 65 11 476
148 604 201 229 96 543 261 777 411 105 67 422 293 531 379 50 40 71 58 262
219 357 301 798 763 1047 1099 73 97 86 128 84 197 -1 73 -20 112 -107 221
-410 517 -977 1081 -1397 1389 -33 24 -77 58 -99 75 -50 41 -283 201 -411 282
-252 160 -803 412 -1039 476 -358 97 -586 133 -893 139 -126 2 -246 2 -265 0z
m420 -339 c63 -9 140 -20 170 -25 30 -5 75 -12 99 -15 99 -12 291 -61 417
-105 49 -18 103 -36 119 -40 115 -32 480 -206 680 -325 169 -100 601 -400 661
-459 6 -6 26 -22 44 -36 115 -86 420 -362 571 -517 158 -162 363 -383 414
-448 22 -27 50 -61 62 -75 169 -198 173 -203 155 -226 -33 -42 -216 -260 -256
-304 -256 -285 -656 -667 -891 -850 -38 -30 -72 -57 -75 -60 -3 -3 -75 -58
-160 -122 -205 -153 -433 -301 -625 -405 -84 -46 -393 -200 -458 -228 -74 -32
-293 -107 -397 -136 -111 -31 -114 -32 -198 -48 -30 -6 -57 -13 -61 -15 -4 -3
-25 -7 -46 -9 -22 -3 -60 -10 -85 -15 -25 -6 -76 -13 -115 -17 -38 -3 -108
-10 -155 -16 -181 -22 -605 37 -885 125 -5 1 -30 8 -55 15 -145 41 -487 191
-704 309 -376 203 -872 565 -1211 882 -50 47 -150 141 -223 208 -73 68 -182
179 -244 245 -61 67 -130 142 -152 167 -23 25 -71 81 -106 124 -36 44 -80 96
-99 118 -32 36 -33 39 -18 62 9 13 22 29 29 37 8 8 53 64 102 124 49 61 96
117 105 125 9 8 57 62 106 119 89 104 474 497 570 582 337 299 765 606 1128
807 280 156 599 289 857 358 160 44 435 88 655 107 50 5 170 -3 275 -18z"/>
<path d="M4955 6803 c-144 -18 -297 -59 -465 -126 -283 -111 -604 -392 -768
-670 -128 -217 -183 -380 -239 -704 -12 -66 -8 -317 6 -414 25 -176 88 -373
164 -518 209 -395 549 -687 957 -821 106 -34 167 -48 300 -68 74 -11 369 -7
450 7 41 7 84 14 95 16 96 15 254 70 375 128 296 145 512 340 697 632 44 71
70 120 118 230 92 208 136 503 114 755 -20 232 -90 470 -196 670 -256 483
-731 812 -1273 879 -80 10 -269 13 -335 4z m425 -348 c79 -18 220 -69 305
-112 115 -59 223 -140 340 -258 158 -157 237 -279 328 -500 69 -169 98 -426
70 -620 -48 -340 -173 -589 -403 -808 -195 -186 -426 -298 -713 -347 -66 -11
-147 -20 -180 -20 -54 0 -206 19 -289 35 -71 14 -220 70 -316 120 -181 93
-304 197 -454 385 -124 155 -246 466 -259 661 -7 116 -3 313 9 364 7 28 14 61
16 75 17 105 108 323 184 440 161 247 385 423 682 536 62 24 86 30 230 60 86
18 348 11 450 -11z"/>
<path d="M4995 5860 c-16 -5 -41 -11 -55 -13 -14 -2 -32 -6 -40 -9 -8 -3 -36
-13 -62 -22 -55 -20 -157 -84 -213 -134 -187 -169 -276 -415 -240 -667 17
-118 79 -256 165 -364 77 -97 248 -201 389 -237 59 -15 236 -26 246 -16 2 3
21 6 42 8 57 5 140 34 223 77 237 123 377 341 394 615 13 210 -99 455 -274
601 -83 69 -129 95 -240 132 -77 26 -115 32 -200 35 -58 2 -118 -1 -135 -6z"/>
</g>
</svg>
