<?xml version="1.0" standalone="no"?>
<!DOCTYPE svg PUBLIC "-//W3C//DTD SVG 20010904//EN"
 "http://www.w3.org/TR/2001/REC-SVG-20010904/DTD/svg10.dtd">
<svg version="1.0" xmlns="http://www.w3.org/2000/svg"
 width="1024.000000pt" height="1024.000000pt" viewBox="0 0 1024.000000 1024.000000"
 preserveAspectRatio="xMidYMid meet">

<g transform="translate(0.000000,1024.000000) scale(0.100000,-0.100000)"
fill="#000000" stroke="none">
<path d="M3882 9809 c-13 -5 -36 -18 -50 -30 -54 -42 -1035 -1024 -1053 -1054
-18 -29 -19 -76 -19 -1077 l0 -1047 -629 -3 c-619 -3 -630 -3 -658 -24 -64
-47 -63 -35 -63 -618 l0 -529 24 -41 c14 -23 55 -68 93 -101 141 -125 916
-857 1702 -1609 328 -314 747 -714 931 -889 184 -176 345 -330 358 -344 l22
-24 0 -817 c0 -776 1 -819 19 -852 10 -19 33 -45 51 -57 l33 -23 465 0 c454 0
465 0 499 21 66 41 63 -8 63 907 l0 830 483 473 c930 912 1687 1639 2428 2332
81 75 152 149 158 165 8 20 11 179 9 574 l-3 546 -25 27 c-51 56 -35 55 -750
55 l-660 0 0 1539 c0 1123 -3 1547 -11 1572 -7 19 -21 45 -33 57 -49 55 57 52
-1718 51 -1001 0 -1652 -4 -1666 -10z m3138 -1749 l0 -1460 -1985 0 -1985 0 0
955 0 955 468 0 c433 0 470 1 501 18 72 39 71 33 71 539 l0 453 1465 0 1465 0
0 -1460z m-3220 1010 l0 -270 -272 0 -273 0 270 270 c148 149 271 270 272 270
2 0 3 -121 3 -270z m4660 -3155 l0 -385 -3375 0 -3375 0 0 385 0 385 3375 0
3375 0 0 -385z m-365 -733 c-561 -534 -763 -727 -930 -891 -110 -108 -277
-270 -370 -361 -807 -782 -1377 -1344 -1391 -1371 -12 -24 -14 -153 -14 -819
l0 -790 -285 0 -285 0 0 786 c0 707 -2 789 -16 820 -17 35 -706 710 -1244
1219 -157 149 -436 414 -620 591 -385 368 -730 697 -844 802 l-78 72 3068 0
3069 0 -60 -58z"/>
<path d="M5252 8750 c-93 -57 -94 -185 -2 -247 l33 -23 616 0 c688 0 660 -3
709 70 45 66 16 164 -59 202 -31 17 -83 18 -649 18 -596 0 -616 -1 -648 -20z"/>
<path d="M3599 8047 c-39 -26 -69 -79 -69 -122 0 -43 30 -96 69 -122 l34 -23
1446 0 c1416 0 1447 0 1478 20 96 58 92 193 -6 248 l-39 22 -1439 0 -1440 0
-34 -23z"/>
<path d="M3602 7340 c-94 -57 -94 -182 0 -240 33 -20 50 -20 1490 -18 l1457 3
30 29 c56 54 64 134 20 190 -47 60 53 56 -1521 56 -1422 0 -1443 0 -1476 -20z"/>
<path d="M1461 3922 c-19 -9 -44 -30 -55 -45 -21 -28 -21 -35 -24 -982 l-2
-954 -254 -3 c-239 -3 -256 -4 -282 -24 -70 -52 -90 -136 -48 -202 10 -17 147
-161 304 -319 157 -159 383 -389 503 -511 185 -189 224 -223 259 -233 89 -24
75 -36 641 529 285 284 525 529 533 544 22 41 18 109 -9 149 -43 65 -64 69
-329 69 l-238 0 0 948 c0 927 0 948 -20 980 -11 18 -34 41 -52 52 -32 19 -52
20 -463 20 -390 0 -433 -2 -464 -18z m709 -1197 c0 -1033 -3 -983 69 -1027 33
-21 51 -23 209 -28 l172 -5 -355 -355 -355 -355 -358 358 -358 357 173 0 c188
0 218 6 263 55 l25 27 3 949 2 949 255 0 255 0 0 -925z"/>
<path d="M7825 3921 c-16 -10 -39 -28 -50 -41 -20 -22 -20 -38 -23 -981 l-2
-958 -253 -3 c-279 -3 -293 -6 -334 -67 -27 -39 -30 -96 -9 -144 18 -41 1032
-1053 1069 -1067 40 -14 93 -13 125 4 45 24 1050 1051 1058 1080 11 46 -2 115
-27 143 -46 49 -70 53 -329 53 l-240 0 0 949 0 948 -23 34 c-46 69 -44 69
-512 69 -391 0 -422 -1 -450 -19z m715 -1207 c0 -934 0 -937 21 -971 37 -59
65 -67 246 -73 l162 -5 -342 -352 -342 -352 -355 352 -355 352 180 5 c166 5
182 7 211 27 67 48 64 5 64 1028 l0 925 255 0 255 0 0 -936z"/>
</g>
</svg>
