<?xml version="1.0" standalone="no"?>
<!DOCTYPE svg PUBLIC "-//W3C//DTD SVG 20010904//EN"
 "http://www.w3.org/TR/2001/REC-SVG-20010904/DTD/svg10.dtd">
<svg version="1.0" xmlns="http://www.w3.org/2000/svg"
 width="1024.000000pt" height="1024.000000pt" viewBox="0 0 1024.000000 1024.000000"
 preserveAspectRatio="xMidYMid meet">

<g transform="translate(0.000000,1024.000000) scale(0.100000,-0.100000)"
fill="#000000" stroke="none">
<path d="M7121 8345 c-260 -29 -431 -86 -555 -185 -40 -32 -87 -65 -104 -74
-17 -9 -80 -64 -140 -124 -94 -93 -115 -119 -155 -200 l-47 -93 23 -44 c16
-32 40 -56 82 -84 l59 -39 29 24 c16 13 32 24 36 24 5 0 30 28 56 63 97 125
231 245 345 309 79 44 202 86 315 108 94 18 131 20 250 15 155 -7 279 -26 370
-57 217 -74 417 -239 512 -423 119 -228 155 -330 164 -465 2 -19 6 -39 10 -45
4 -5 3 -64 -1 -131 -15 -204 -95 -415 -229 -602 -21 -30 -83 -92 -143 -143
-13 -11 -33 -29 -46 -40 -12 -10 -25 -19 -28 -19 -3 0 -47 -27 -96 -60 -100
-66 -187 -99 -353 -132 -81 -16 -155 -21 -385 -25 -194 -3 -287 -9 -292 -16
-15 -24 -20 -139 -9 -179 14 -47 34 -57 161 -84 116 -25 423 -25 560 0 173 31
378 112 505 197 43 29 106 78 204 157 40 32 164 185 213 262 54 84 116 211
144 292 48 140 92 395 80 461 -3 18 -6 66 -7 107 -3 115 -40 265 -117 465 -43
113 -173 295 -298 416 -178 172 -472 322 -701 357 -118 19 -282 21 -412 7z"/>
<path d="M2770 8339 c-175 -13 -310 -57 -475 -152 -301 -174 -500 -417 -610
-744 -67 -198 -79 -279 -72 -481 4 -136 9 -175 40 -293 68 -267 182 -471 376
-671 30 -32 60 -58 66 -58 7 0 22 -12 36 -26 54 -57 257 -178 379 -224 230
-87 595 -115 802 -61 101 26 136 45 145 78 7 32 -13 161 -28 180 -9 10 -67 13
-263 12 -233 -1 -258 1 -356 24 -119 28 -283 87 -350 125 -52 31 -151 104
-170 126 -7 9 -18 16 -25 16 -12 0 -106 109 -152 175 -58 84 -144 274 -175
388 -14 52 -21 117 -25 232 -5 180 2 217 85 418 132 319 318 502 600 591 90
28 277 56 375 56 80 0 255 -24 338 -45 178 -46 390 -184 495 -321 32 -43 71
-89 85 -103 32 -32 95 -71 115 -71 19 0 94 69 94 87 0 8 11 31 25 51 14 20 25
42 25 48 0 12 -64 111 -126 194 -52 69 -107 119 -217 195 -172 119 -328 188
-487 215 -36 7 -94 18 -130 26 -85 19 -265 25 -420 13z"/>
<path d="M4938 7739 c-354 -37 -638 -176 -899 -438 -69 -69 -138 -148 -154
-176 -16 -27 -54 -88 -84 -134 -107 -167 -192 -405 -212 -596 -13 -130 -7
-377 11 -480 30 -166 61 -260 134 -405 100 -200 188 -315 355 -465 152 -137
179 -157 316 -224 167 -83 355 -141 548 -172 162 -25 492 8 667 68 158 53 291
126 416 225 224 179 358 336 463 544 78 155 92 193 131 354 32 129 33 144 33
325 0 204 -12 301 -59 462 -36 126 -117 306 -175 390 -27 40 -49 75 -49 79 0
33 -253 291 -374 380 -143 107 -339 198 -501 234 -65 15 -342 40 -425 38 -36
0 -99 -4 -142 -9z m437 -299 c168 -31 396 -139 545 -258 65 -53 200 -204 200
-226 0 -8 19 -33 43 -55 30 -29 52 -63 75 -118 107 -264 132 -377 132 -604 0
-278 -47 -439 -198 -674 -53 -81 -244 -295 -264 -295 -5 0 -41 -22 -81 -49
-81 -54 -178 -105 -280 -145 -226 -90 -591 -97 -802 -15 -159 61 -357 165
-420 220 -189 166 -287 308 -383 554 -64 162 -88 407 -58 595 56 351 249 677
502 850 147 100 325 176 509 216 96 20 130 23 265 19 85 -2 182 -9 215 -15z"/>
<path d="M7860 5568 c-39 -40 -73 -112 -65 -136 3 -9 20 -33 38 -53 25 -29 46
-40 97 -54 388 -101 629 -232 857 -468 61 -63 119 -128 129 -144 10 -15 30
-42 46 -59 80 -86 205 -337 258 -519 65 -223 93 -386 94 -555 1 -134 -1 -149
-23 -195 -27 -57 -49 -78 -106 -105 -38 -19 -71 -20 -730 -20 l-690 0 -60 127
c-75 159 -156 285 -286 443 -11 14 -44 54 -73 90 -113 138 -350 345 -523 457
-287 186 -574 308 -795 340 -45 6 -96 -29 -133 -92 -34 -56 -33 -91 3 -109 15
-8 36 -23 46 -35 27 -29 71 -51 139 -67 32 -8 72 -22 90 -31 18 -9 60 -27 95
-39 35 -12 93 -40 130 -62 37 -21 92 -50 122 -64 108 -49 313 -191 422 -294
29 -27 86 -78 127 -114 40 -35 85 -82 98 -105 14 -22 45 -67 69 -100 117 -159
141 -198 209 -334 40 -80 80 -171 90 -201 10 -30 23 -73 30 -95 18 -57 25 -88
41 -190 29 -189 36 -263 32 -355 -5 -108 -23 -153 -85 -219 -75 -78 128 -72
-2434 -68 l-2284 3 -53 21 c-74 30 -98 47 -128 92 -35 53 -43 128 -33 291 14
230 53 396 145 618 85 206 281 501 429 644 33 32 87 85 120 117 200 196 632
429 973 527 7 2 22 19 33 38 11 19 26 37 34 40 10 3 15 19 15 44 0 31 -7 45
-38 75 -21 20 -43 37 -49 37 -6 0 -16 7 -23 15 -18 21 -46 19 -168 -15 -165
-46 -363 -128 -422 -175 -8 -7 -44 -25 -80 -42 -72 -33 -171 -96 -269 -170
-139 -106 -288 -233 -331 -284 -25 -29 -69 -80 -99 -114 -52 -58 -164 -202
-225 -289 -16 -22 -63 -111 -105 -196 l-77 -155 -684 -3 c-749 -3 -730 -4
-801 55 -51 43 -70 95 -76 202 -5 100 1 147 51 377 26 121 88 309 126 384 11
22 20 46 20 54 0 24 80 169 116 208 18 21 47 63 63 95 16 32 37 65 48 75 10 9
79 74 153 145 230 219 437 335 721 403 84 20 221 94 233 126 13 35 -4 114 -24
114 -4 0 -24 16 -43 37 -35 35 -38 36 -99 34 -136 -4 -347 -57 -437 -110 -25
-15 -63 -35 -84 -45 -63 -29 -226 -134 -322 -206 -92 -69 -215 -189 -215 -210
0 -6 -13 -17 -30 -24 -41 -17 -125 -126 -206 -265 -37 -64 -80 -129 -95 -146
-15 -17 -39 -65 -54 -109 -15 -44 -36 -102 -46 -130 -18 -45 -49 -143 -85
-271 -42 -152 -77 -355 -80 -470 -4 -155 6 -212 55 -310 73 -147 185 -247 324
-288 70 -21 88 -21 722 -22 573 0 650 -2 646 -15 -6 -19 -36 -258 -52 -414
-13 -111 -12 -125 9 -224 30 -145 65 -211 159 -305 59 -59 112 -92 185 -116
76 -25 188 -45 233 -42 17 2 1054 5 2305 7 l2275 3 65 22 c216 71 349 253 366
499 6 82 -13 312 -36 440 -6 30 -13 74 -16 97 l-6 42 38 7 c21 4 303 4 626 0
658 -8 654 -8 793 62 86 42 186 141 232 227 90 170 82 398 -28 835 -22 89 -54
199 -70 244 -34 92 -127 279 -168 340 -15 23 -30 46 -32 52 -23 61 -240 319
-354 419 -38 33 -73 65 -79 70 -58 54 -281 204 -351 235 -28 13 -81 37 -120
55 -117 55 -287 95 -402 95 -57 0 -65 -3 -93 -32z"/>
</g>
</svg>
